<?xml version="1.0" standalone="no"?>
<!DOCTYPE svg PUBLIC "-//W3C//DTD SVG 20010904//EN"
 "http://www.w3.org/TR/2001/REC-SVG-20010904/DTD/svg10.dtd">
<svg version="1.0" xmlns="http://www.w3.org/2000/svg"
 width="249.000000pt" height="323.000000pt" viewBox="0 0 249.000000 323.000000"
 preserveAspectRatio="xMidYMid meet">

<g transform="translate(0.000000,323.000000) scale(0.100000,-0.100000)"
fill="#000000" stroke="none">
<path d="M1050 3129 c-14 -6 -43 -11 -65 -10 -45 2 -211 -22 -276 -39 -24 -7
-92 -45 -151 -86 -60 -40 -120 -80 -134 -87 -47 -24 -123 -257 -177 -537 -22
-116 -25 -146 -17 -210 5 -41 9 -140 10 -219 l0 -144 -42 7 c-24 4 -53 14 -65
22 -33 21 -56 17 -86 -14 -38 -39 -34 -68 17 -133 25 -31 54 -76 65 -100 23
-52 122 -159 145 -159 13 0 16 -12 16 -65 0 -83 36 -345 56 -410 9 -27 39 -97
66 -155 28 -58 55 -116 62 -129 7 -15 11 -85 11 -182 0 -150 -1 -161 -25 -204
-13 -25 -33 -48 -42 -51 -10 -3 -18 -11 -18 -17 0 -7 -9 -23 -20 -37 -24 -31
-25 -40 -2 -40 10 0 27 18 42 45 14 25 32 47 40 50 40 13 65 124 62 273 l-2
63 42 -35 c23 -20 51 -36 62 -36 12 0 31 -3 44 -6 34 -10 26 12 -10 27 -18 7
-37 13 -43 14 -29 3 -105 87 -105 115 0 6 -27 62 -60 124 -33 63 -69 150 -80
193 -29 107 -53 287 -56 413 -3 103 -13 185 -29 225 -8 19 -8 19 12 3 28 -25
114 -25 136 0 23 26 21 64 -5 98 l-22 28 41 -23 c38 -22 41 -27 46 -75 2 -28
1 -61 -4 -74 -5 -13 -9 -36 -9 -51 0 -26 3 -28 88 -45 163 -34 197 -36 380
-30 l182 7 0 -29 c0 -16 -5 -58 -10 -94 -5 -35 -7 -66 -4 -69 13 -14 27 27 39
120 8 57 19 122 25 144 5 22 10 54 10 71 0 17 10 44 22 59 18 24 27 27 63 23
22 -3 58 -16 80 -30 38 -24 40 -29 73 -149 18 -68 40 -180 49 -249 8 -69 19
-133 24 -142 16 -30 10 -51 -23 -85 l-32 -33 26 0 c16 0 32 9 42 25 21 32 28
31 47 -7 20 -42 44 -51 35 -13 -7 26 -6 27 21 20 15 -4 54 -11 86 -15 31 -5
74 -14 95 -21 82 -27 162 -98 162 -144 0 -13 5 -27 10 -30 6 -4 10 9 10 31 0
31 -8 45 -47 84 -54 53 -124 84 -230 100 -105 16 -106 16 -138 67 -45 72 -53
93 -65 200 -7 54 -14 101 -16 105 -4 6 62 15 128 17 20 1 64 -3 96 -8 56 -9
296 0 308 12 3 3 5 51 5 107 -1 97 0 102 27 128 26 26 27 26 30 6 2 -12 12
-30 23 -40 16 -14 23 -15 44 -6 31 14 32 13 39 -78 3 -36 8 -89 11 -118 4 -32
0 -85 -9 -130 -46 -229 -44 -223 -106 -394 -49 -140 -91 -212 -155 -269 -16
-15 -49 -45 -72 -67 -22 -21 -47 -39 -55 -39 -17 0 -90 -44 -84 -50 3 -3 27 1
53 8 33 10 66 31 109 72 34 31 64 57 67 57 3 0 4 -26 3 -57 -4 -67 7 -187 23
-256 10 -47 65 -137 83 -137 10 0 5 11 -25 52 -11 15 -24 49 -29 75 -14 77
-28 246 -23 273 3 14 7 42 9 62 2 20 20 64 40 98 20 34 36 64 36 67 0 3 6 19
14 36 8 18 26 68 42 112 15 44 30 85 34 90 7 9 12 37 41 190 24 127 26 163 16
267 -9 93 -9 110 5 125 8 10 30 46 48 80 17 34 54 89 82 123 40 50 51 73 59
118 5 32 9 59 9 62 0 3 -27 14 -60 24 -49 16 -65 17 -85 8 -14 -7 -27 -12 -29
-12 -12 0 -24 97 -26 205 0 72 -5 148 -10 170 -5 22 -10 78 -10 125 0 47 -7
112 -15 143 -8 32 -15 70 -15 85 0 52 -243 262 -304 262 -23 0 -134 38 -182
62 -16 9 -51 18 -79 21 -27 3 -99 22 -160 42 -98 33 -124 37 -235 41 -80 3
-134 0 -150 -7z m443 -495 c65 -5 77 -9 77 -24 0 -32 47 -77 93 -89 35 -10 50
-10 82 2 52 20 132 29 140 17 3 -6 28 -10 55 -10 37 0 52 5 63 20 13 19 14 19
39 -8 14 -15 35 -58 47 -97 21 -65 23 -85 19 -266 -2 -154 0 -199 10 -212 22
-26 -12 -203 -46 -239 -14 -16 -29 -28 -34 -28 -16 0 -7 46 12 57 25 16 48 89
32 105 -15 15 -347 -17 -437 -43 -38 -11 -86 -31 -106 -44 -34 -22 -38 -23
-51 -7 -8 9 -20 30 -26 45 -7 15 -16 25 -22 22 -12 -8 7 -52 37 -86 25 -27 22
-39 -9 -39 -14 0 -18 -8 -18 -35 0 -19 -3 -35 -6 -35 -3 0 -26 14 -52 32 -65
45 -133 50 -185 14 -45 -31 -47 -31 -47 -7 0 11 -4 23 -10 26 -17 10 -11 23
13 30 28 9 67 44 67 62 0 20 -18 16 -30 -7 -6 -11 -27 -27 -47 -35 -36 -15
-37 -15 -133 34 -57 29 -122 54 -161 61 -35 7 -98 23 -139 36 -41 13 -89 24
-106 24 -18 0 -34 5 -36 12 -2 6 -10 8 -16 4 -19 -12 -14 -58 13 -105 14 -23
25 -45 25 -47 0 -2 -18 -4 -39 -4 -29 0 -44 -6 -54 -20 l-14 -21 -57 21 c-31
12 -56 22 -56 23 0 1 -9 26 -20 56 -18 49 -18 58 -5 114 12 54 12 76 -1 180
-18 138 -15 200 14 277 11 30 30 87 41 125 11 39 27 79 35 90 14 19 16 19 32
3 9 -9 20 -34 23 -55 6 -35 9 -38 44 -41 20 -2 37 -7 37 -12 0 -5 7 -15 15
-24 12 -11 32 -13 92 -9 72 5 81 8 115 41 21 20 41 44 44 55 4 14 12 17 34 12
22 -5 33 -1 52 19 l23 26 19 -35 c13 -23 30 -38 50 -43 44 -12 196 11 211 32
7 9 23 16 37 16 14 0 40 11 59 24 21 15 44 23 59 21 14 -2 60 -7 103 -11z
m849 -676 c15 -5 28 -17 31 -26 5 -23 -12 -73 -33 -97 -10 -11 -39 -53 -65
-92 -26 -40 -50 -73 -51 -73 -2 0 -4 20 -4 44 0 39 3 45 22 48 29 4 43 43 34
93 -5 25 -14 39 -27 42 -10 3 -19 13 -19 23 0 23 50 61 70 54 8 -3 27 -10 42
-16z m-94 -125 c2 -11 -4 -26 -13 -33 -13 -11 -15 -8 -15 25 0 39 22 46 28 8z
m-2010 -81 c2 -12 -1 -22 -6 -22 -14 0 -43 36 -35 44 14 13 38 1 41 -22z m-40
-38 c40 -44 51 -64 56 -102 3 -26 9 -68 14 -94 11 -60 -1 -62 -50 -10 -49 50
-80 115 -72 148 5 19 1 29 -15 40 -33 24 -26 69 11 73 3 1 29 -24 56 -55z m79
-6 c-3 -8 -6 -5 -6 6 -1 11 2 17 5 13 3 -3 4 -12 1 -19z m443 5 c3 -2 -2 -9
-11 -13 -9 -5 -33 -30 -54 -55 l-37 -46 38 -35 39 -34 162 2 c89 2 164 5 166
8 3 3 8 25 12 50 l7 46 -61 29 c-33 16 -59 30 -57 32 2 2 36 -6 75 -17 40 -12
81 -20 91 -17 19 5 20 0 20 -75 0 -109 -6 -118 -72 -106 -29 5 -66 7 -83 3
-16 -3 -79 -10 -140 -15 -126 -10 -212 5 -255 46 -23 22 -24 29 -21 111 2 48
5 91 7 94 4 6 166 -1 174 -8z m1250 -20 c6 -5 0 -246 -6 -252 -4 -4 -50 -4
-194 0 -25 1 -96 -1 -158 -3 -88 -4 -115 -2 -119 8 -3 7 -1 62 4 121 l8 108
30 -3 c17 -1 68 4 115 12 47 9 94 15 105 15 27 -1 -69 -27 -128 -34 -68 -9
-99 -39 -102 -98 -2 -46 -1 -47 34 -57 70 -19 141 -9 243 34 21 9 51 16 68 16
16 0 30 4 30 10 0 13 -91 114 -107 118 -7 2 -13 8 -13 14 0 10 179 2 190 -9z
m-1180 -1 c0 -5 -7 -17 -15 -28 -17 -23 -19 -66 -4 -81 9 -9 5 -14 -14 -18
-33 -9 -59 0 -75 25 -11 19 -8 26 25 65 24 28 47 44 61 45 12 0 22 -4 22 -8z
m1022 -59 c23 -21 23 -49 1 -56 -10 -2 -25 -8 -33 -11 -12 -5 -15 3 -15 39 -1
49 14 58 47 28z m-822 -13 c31 -17 14 -50 -26 -50 -36 0 -37 2 -28 38 7 24 24
28 54 12z m632 -39 c-3 -32 -8 -41 -23 -41 -21 0 -40 36 -31 58 5 14 42 32 52
27 3 -2 4 -22 2 -44z m-452 -8 c0 -10 -5 -25 -10 -33 -7 -11 -10 -7 -10 18 0
17 5 32 10 32 6 0 10 -8 10 -17z"/>
<path d="M1563 2392 c-20 -13 -43 -78 -43 -122 0 -22 -4 -40 -10 -40 -5 0 -10
-11 -10 -23 0 -13 -9 -59 -21 -103 -26 -99 -27 -106 -11 -111 6 -3 12 3 12 12
0 21 39 184 50 210 5 11 11 43 14 70 4 28 15 62 26 77 27 37 24 50 -7 30z"/>
<path d="M1073 2276 c11 -24 30 -49 42 -54 34 -16 65 -111 72 -225 5 -84 15
-120 28 -106 1 2 -1 47 -6 99 -10 124 -41 224 -76 247 -14 9 -32 32 -39 50 -8
18 -20 33 -28 33 -10 0 -9 -10 7 -44z"/>
<path d="M1265 2006 c4 -56 3 -86 -4 -91 -16 -9 -14 -25 3 -25 8 0 18 9 21 21
10 29 -5 179 -17 179 -7 0 -8 -29 -3 -84z"/>
<path d="M664 1522 c19 -31 236 -39 300 -11 17 7 14 8 -14 5 -135 -19 -184
-17 -274 10 -11 4 -16 2 -12 -4z"/>
<path d="M1525 1489 c-11 -16 210 -24 251 -9 40 16 25 20 -28 8 -33 -8 -75 -8
-134 -2 -47 5 -87 7 -89 3z"/>
<path d="M1230 1491 c0 -23 -7 -46 -16 -55 -16 -17 -11 -36 10 -36 8 0 16 14
20 31 9 48 7 99 -4 99 -5 0 -10 -18 -10 -39z"/>
<path d="M1029 1124 c-24 -38 -54 -70 -68 -76 -14 -5 -80 -12 -145 -15 l-119
-6 -37 -37 c-35 -35 -80 -129 -80 -166 0 -29 17 -4 39 56 12 34 37 75 55 94
33 33 34 33 154 39 69 3 135 12 155 21 34 14 35 14 68 -20 32 -31 79 -46 79
-24 0 5 -10 15 -22 21 -50 26 -57 38 -44 71 8 18 26 36 45 44 40 17 42 38 2
29 -26 -6 -29 -4 -24 14 10 40 -15 20 -58 -45z"/>
<path d="M1146 1034 c-21 -20 -20 -31 3 -44 22 -11 90 -14 115 -4 26 10 19 31
-16 48 -40 20 -82 20 -102 0z"/>
<path d="M1361 1031 c-35 -27 -25 -55 22 -59 30 -3 42 2 62 24 31 33 31 40 3
48 -38 10 -62 6 -87 -13z"/>
<path d="M720 912 c0 -22 38 -86 74 -126 20 -22 36 -47 36 -56 0 -29 73 -88
161 -129 47 -23 91 -41 96 -41 6 0 16 -6 22 -14 9 -11 5 -15 -22 -20 -34 -6
-86 -50 -74 -62 4 -4 25 6 48 21 36 25 52 29 127 32 70 3 105 -1 177 -21 50
-13 94 -21 98 -16 12 11 3 15 -83 35 l-74 18 46 14 c26 7 50 18 53 23 3 6 19
10 34 10 16 0 61 11 102 23 124 40 169 70 169 113 0 13 3 24 8 24 13 0 70 57
92 92 11 18 20 44 20 58 -1 22 -3 20 -22 -15 -29 -57 -89 -117 -108 -109 -8 4
-35 10 -60 14 -25 4 -90 19 -146 34 l-100 27 -48 -21 c-61 -26 -68 -25 -121 6
-42 24 -47 25 -107 14 -35 -6 -85 -15 -113 -20 -27 -5 -73 -9 -102 -9 -28 -1
-55 -5 -58 -11 -13 -22 -34 -8 -71 48 -49 73 -54 79 -54 64z m509 -122 l54
-30 42 20 c54 26 75 25 141 -5 31 -14 59 -23 64 -20 5 3 33 3 62 -1 48 -7 50
-8 28 -17 -14 -6 -47 -20 -75 -33 -43 -19 -58 -21 -110 -13 -33 5 -159 14
-280 19 -192 10 -223 13 -252 31 -18 11 -33 24 -33 28 0 5 42 11 93 15 50 3
110 13 132 21 57 20 73 18 134 -15z m-322 -77 c23 -15 61 -19 228 -24 110 -4
227 -12 260 -19 71 -14 139 -9 164 14 13 12 98 45 119 46 1 0 2 -6 2 -14 0 -8
-15 -23 -33 -34 -42 -24 -165 -65 -192 -64 -11 1 -45 -9 -75 -22 -30 -13 -85
-30 -122 -37 -66 -12 -68 -12 -140 20 -141 62 -246 123 -247 144 -1 11 7 9 36
-10z"/>
<path d="M970 357 c0 -26 42 -57 98 -72 31 -8 78 -22 103 -31 96 -32 258 -10
305 41 13 14 24 28 24 31 0 11 -26 2 -54 -19 -62 -46 -199 -63 -268 -33 -18 8
-59 20 -91 26 -45 9 -62 18 -79 41 -23 31 -38 37 -38 16z"/>
<path d="M767 159 c-22 -11 -37 -23 -34 -26 10 -9 61 7 87 27 23 18 23 20 5
19 -11 0 -37 -9 -58 -20z"/>
</g>
</svg>
